<svg version="1.1" xmlns="http://www.w3.org/2000/svg" xmlns:xlink="http://www.w3.org/1999/xlink" width="48" height="48"><defs><linearGradient x1="5.2618" y1="5.2618" x2="83.42324" y2="83.42324" gradientUnits="userSpaceOnUse" id="color-1"><stop offset="0" stop-color="#000000" stop-opacity="0"></stop><stop offset="1" stop-color="#000000" stop-opacity="0"></stop></linearGradient><filter id="dropshadow-base"><feColorMatrix type="matrix" values="0 0 0 0 0  0 0 0 0 0  0 0 0 0 0  0 0 0 .8 0"></feColorMatrix> <feOffset dx="0" dy="1"></feOffset> <feGaussianBlur stdDeviation="1"></feGaussianBlur> <feComposite in="SourceGraphic"></feComposite></filter><filter id="dropshadow-banner" x="-10%" y="-10%" width="120%" height="130%"><feColorMatrix type="matrix" values="0 0 0 0 0  0 0 0 0 0  0 0 0 0 0  0 0 0 .4 0"></feColorMatrix> <feOffset dx="0" dy="1"></feOffset> <feGaussianBlur stdDeviation="0.5"></feGaussianBlur> <feComposite in="SourceGraphic"></feComposite></filter></defs><g fill="none" fill-rule="nonzero" stroke="none" stroke-width="none" stroke-linecap="butt" stroke-linejoin="miter" stroke-miterlimit="10" stroke-dasharray="" stroke-dashoffset="0" font-family="none" font-weight="none" font-size="none" text-anchor="none" style="mix-blend-mode: normal"><path d="M2,24c0,-12.15026 9.84974,-22 22,-22c12.15026,0 22,9.84974 22,22c0,12.15026 -9.84974,22 -22,22c-12.15026,0 -22,-9.84974 -22,-22z" id="base 1 5" fill="#000000" stroke-width="1"></path><path d="M10.75088,37.25021c-3.3918,-3.3918 -5.48908,-8.0773 -5.48908,-13.25021c0,-10.35286 8.38534,-18.7382 18.7382,-18.7382c5.17643,0 9.86098,2.09634 13.25142,5.48678l8.15536,8.15536c0.38791,1.63559 0.59322,3.34185 0.59322,5.09607c0,12.15026 -9.84974,22 -22,22c-1.75257,0 -3.45727,-0.20493 -5.09146,-0.59213z" fill="url(#color-1)" stroke-width="1"></path><path d="M24,21.9388c-1.13366,0 -2.0612,0.92754 -2.0612,2.0612c0,1.13366 0.92754,2.0612 2.0612,2.0612c1.14303,0 2.0612,-0.92754 2.0612,-2.0612c0,-1.13366 -0.91817,-2.0612 -2.0612,-2.0612zM24,5.2618c-10.35286,0 -18.7382,8.38534 -18.7382,18.7382c0,10.34349 8.38534,18.7382 18.7382,18.7382c10.35286,0 18.7382,-8.39471 18.7382,-18.7382c0,-10.35286 -8.38534,-18.7382 -18.7382,-18.7382zM28.10367,28.10367l-15.34659,7.13925l7.13925,-15.34659l15.34659,-7.13925z" fill="none" stroke-width="0"></path><path d="M26.0612,24c0,1.13366 -0.91817,2.0612 -2.0612,2.0612c-1.13366,0 -2.0612,-0.92754 -2.0612,-2.0612c0,-1.13366 0.92754,-2.0612 2.0612,-2.0612c1.14303,0 2.0612,0.92754 2.0612,2.0612zM42.7382,24c0,10.34349 -8.38534,18.7382 -18.7382,18.7382c-10.35286,0 -18.7382,-8.39471 -18.7382,-18.7382c0,-10.35286 8.38534,-18.7382 18.7382,-18.7382c10.35286,0 18.7382,8.38534 18.7382,18.7382zM35.24292,12.75708l-15.34659,7.13925l-7.13925,15.34659l15.34659,-7.13925z" fill="#ffffff" stroke-width="0"></path><path d="M2,24c0,-12.15026 9.84974,-22 22,-22c12.15026,0 22,9.84974 22,22c0,12.15026 -9.84974,22 -22,22c-12.15026,0 -22,-9.84974 -22,-22z" id="base 1 1 1" fill="none" stroke-width="1"></path><g fill="#000000" stroke-width="1" font-family="Roboto, sans-serif" font-weight="400" font-size="14" text-anchor="start"></g><rect x="2" y="2" width="44" height="22" fill="none" stroke-width="1"></rect><path d="M2,24v-22h44v22z" fill="none" stroke-width="1"></path><path d="M2,24v-22h44v22z" fill="none" stroke-width="1"></path><path d="M2,24v-22h44v22z" fill="none" stroke-width="1"></path><path d="M2,24v-22h44v22z" fill="none" stroke-width="1"></path></g></svg>